<?xml version="1.0" encoding="utf-8"?>
<!-- Generator: Adobe Illustrator 26.2.1, SVG Export Plug-In . SVG Version: 6.00 Build 0)  -->
<svg version="1.1" id="Capa_1" xmlns="http://www.w3.org/2000/svg" xmlns:xlink="http://www.w3.org/1999/xlink" x="0px" y="0px"
	 viewBox="0 0 344 346" style="enable-background:new 0 0 344 346;" xml:space="preserve">
<path d="M172,3C77,3,0,80,0,175s77,172,172,172s172-77,172-172S267,3,172,3z M119.6,265.2H77.7V130.5h41.9V265.2z M98.6,112
	c-13.4,0-24.3-10.9-24.3-24.3s10.9-24.3,24.3-24.3c13.4,0,24.3,10.9,24.3,24.3S112,112,98.6,112z M276.3,265.2h-41.8v-65.5
	c0-15.6-0.3-35.7-21.8-35.7c-21.8,0-25.1,17-25.1,34.6v66.7h-41.8V130.5H186v18.4h0.5c8.2-14,23.4-22.4,39.6-21.8
	c42.4,0,50.2,27.9,50.2,64.2V265.2z"/>
</svg>
